# xmcd
#
# Track frame offsets: 
#        183
#        12730
#        24363
#        37710
#        48428
#        67645
#        79033
#        90598
#        99135
#        112148
#        129773
#        147823
#        169855
#        181005
#        194800
#        207560
#        225305
#
# Disc length: 3191 seconds
#
# Revision: 3
# Processed by: cddbd v1.5.1PL0 Copyright (c) Steve Scherf et al.
# Submitted via: ExactAudioCopy v0.95a4
#
DISCID=d00c7511
DTITLE=Nina Simone - The Blues
DYEAR=1990
DGENRE=Blues
TTITLE0=Do I Move You?
TTITLE1=Day And Night
TTITLE2=In The Dark
TTITLE3=Real Real
TTITLE4=My Man's Gone Now
TTITLE5=Backlash Blues
TTITLE6=I Want A Little Sugar In My Bowl
TTITLE7=Buck
TTITLE8=Since I Fell For You
TTITLE9=The House Of The Rising Sun
TTITLE10=Blues For Mama
TTITLE11=The Pusher
TTITLE12=Turn Me On
TTITLE13=Nobody's Fault But Mine
TTITLE14=Go To Hell
TTITLE15=I Shall Be Released
TTITLE16=Gin House Blues
EXTD=
EXTT0=
EXTT1=
EXTT2=
EXTT3=
EXTT4=
EXTT5=
EXTT6=
EXTT7=
EXTT8=
EXTT9=
EXTT10=
EXTT11=
EXTT12=
EXTT13=
EXTT14=
EXTT15=
EXTT16=
PLAYORDER=
